<svg xmlns="http://www.w3.org/2000/svg" width="15.81" height="14.333" viewBox="0 0 15.81 14.333">
  <g id="Grupo_42" data-name="Grupo 42" transform="translate(-121 -1152)">
    <g id="Grupo_12" data-name="Grupo 12" transform="translate(121.302 1152)">
      <path id="Trazado_22" data-name="Trazado 22" d="M5018.806-2096.99h0a.338.338,0,0,0,0,.292.337.337,0,0,0,.31.19h.509a.168.168,0,0,1-.153-.086.172.172,0,0,1,0-.156l3.577-6.163,2.35-4.049h0s0,0,0,0l.027-.045a0,0,0,0,1,0,0h0a.519.519,0,0,1,.145-.131.491.491,0,0,1,.333-.071,1.261,1.261,0,0,0-.359-.106h0a2.668,2.668,0,0,0-.507-.048H5025a.444.444,0,0,0-.129.031.27.27,0,0,0-.121.1.239.239,0,0,0-.013.022l-2.125,3.663Z" transform="translate(-5017.437 2107.369)" fill="#9a9a9a"/>
      <path id="Trazado_23" data-name="Trazado 23" d="M4999.566-2095.365h.507a.168.168,0,0,1-.154-.087.174.174,0,0,1-.005-.15h0l4.289-7.39,1.74-3h0l.006-.009h0a.356.356,0,0,1,.084-.085.377.377,0,0,1,.123-.056,2.126,2.126,0,0,0-.245.075h0a2.68,2.68,0,0,0-1.4,1.162c-.016.025-.03.051-.044.076l-5.21,8.975,0,0a.337.337,0,0,0,0,.295A.336.336,0,0,0,4999.566-2095.365Z" transform="translate(-4999.221 2106.226)" fill="#9a9a9a"/>
      <path id="Trazado_24" data-name="Trazado 24" d="M5044.119-2101.583v0l0,0v0l-2.417,4.164-3.244,5.589s0,0,0,0a.34.34,0,0,0,0,.3.337.337,0,0,0,.309.19h.508a.17.17,0,0,1-.153-.086.185.185,0,0,1,0-.165l3.183-5.482,2.571-4.431h0l0-.006,0,0a.143.143,0,0,1,.066-.053.144.144,0,0,1,.139.014l-.121-.106h0l0,0h0c-.049-.037-.1-.072-.149-.1h0a.577.577,0,0,0-.436-.024A.523.523,0,0,0,5044.119-2101.583Z" transform="translate(-5035.735 2102.188)" fill="#9a9a9a"/>
    </g>
    <path id="Trazado_25" data-name="Trazado 25" d="M5009.443-1906.235h10.446a2.681,2.681,0,0,0,1.8-.694H5007.64A2.683,2.683,0,0,0,5009.443-1906.235Z" transform="translate(-4885.762 3072.568)" fill="#9a9a9a"/>
    <path id="Trazado_26" data-name="Trazado 26" d="M5010.6-1945.918v-.007l-.032-.369,0-.049a.366.366,0,0,1,0,.049.349.349,0,0,1-.1.217.378.378,0,0,1-.209.1h-15.089a.38.38,0,0,1-.208-.1.356.356,0,0,1-.1-.216.373.373,0,0,1,0-.05l0,.049-.033.377h0a2.457,2.457,0,0,0-.016.283c0,.013,0,.025,0,.038h0a.376.376,0,0,0,.1.211.392.392,0,0,0,.251.106h15.112a.392.392,0,0,0,.251-.106.367.367,0,0,0,.1-.216h0v-.034A2.572,2.572,0,0,0,5010.6-1945.918Z" transform="translate(-4873.806 3109.301)" fill="#9a9a9a"/>
    <g id="Grupo_13" data-name="Grupo 13" transform="translate(129.03 1152.989)">
      <path id="Trazado_27" data-name="Trazado 27" d="M5131.938-2092.342h0v0l-.142.249a.163.163,0,0,1,.132-.075.177.177,0,0,1,.159.087l.007.01h0l.855,1.475,4.283,7.378v0a.18.18,0,0,1,0,.161.17.17,0,0,1-.153.086h.506a.335.335,0,0,0,.309-.19.336.336,0,0,0,0-.311l0-.006,0-.007h0l-5.2-8.964v0a2.7,2.7,0,0,0-.214-.328l0,0a.189.189,0,0,0-.151-.064.182.182,0,0,0-.139.094l0-.01Z" transform="translate(-5130.453 2092.835)" fill="#9a9a9a"/>
      <path id="Trazado_28" data-name="Trazado 28" d="M5126.613-2067.509h.509a.335.335,0,0,0,.309-.19.337.337,0,0,0,0-.3l0,0-3.8-6.556-.944-1.627h0a.193.193,0,0,0-.153-.066.171.171,0,0,0-.129.079l-.256.44v0l-.144.25a.166.166,0,0,1,.133-.076.186.186,0,0,1,.167.1h0l.9,1.543,3.571,6.152a.188.188,0,0,1,0,.168A.168.168,0,0,1,5126.613-2067.509Z" transform="translate(-5121.328 2077.381)" fill="#9a9a9a"/>
      <path id="Trazado_29" data-name="Trazado 29" d="M5116.139-2051.686h.507a.333.333,0,0,0,.309-.19.341.341,0,0,0-.006-.317.029.029,0,0,0,0-.008l-3.231-5.569-.839-1.445a.19.19,0,0,0-.146-.06.176.176,0,0,0-.132.081.1.1,0,0,1-.008.012h0l-.249.429h0l-.142.248a.163.163,0,0,1,.132-.075.183.183,0,0,1,.164.094l0,0h0l.614,1.059,3.178,5.476h0a.189.189,0,0,1,0,.172A.169.169,0,0,1,5116.139-2051.686Z" transform="translate(-5112.197 2061.558)" fill="#9a9a9a"/>
    </g>
    <path id="Trazado_30" data-name="Trazado 30" d="M5011.834-1925.247a.4.4,0,0,1-.1.026h-15.191a.385.385,0,0,1-.1-.026.276.276,0,0,1-.108-.069.961.961,0,0,0,.024.1h0a.012.012,0,0,0,0,.005c.006.02.013.042.021.065h0a2.67,2.67,0,0,0,.232.487.345.345,0,0,0,.141.108.493.493,0,0,0,.146.029h14.47a.49.49,0,0,0,.145-.029.355.355,0,0,0,.145-.111h0a2.572,2.572,0,0,0,.228-.483h0a.167.167,0,0,1,.006-.017l0-.011,0-.01c0-.011.008-.022.012-.033h0a.961.961,0,0,0,.024-.1A.282.282,0,0,1,5011.834-1925.247Z" transform="translate(-4875.237 3089.705)" fill="#9a9a9a"/>
  </g>
</svg>
