<svg id="Capa_1" data-name="Capa 1" xmlns="http://www.w3.org/2000/svg" viewBox="0 0 170 15"><defs><style>.cls-1{fill:#8abe29;fill-rule:evenodd;}</style></defs><title>Mesa de trabajo 1asd</title><path class="cls-1" d="M60.6,1.58c25-1.11,50-1.69,75-1.56,5,0,10,.11,15,.2,6,.1,12,.2,18,.2h1.15a.68.68,0,0,1,0,1h0c-.1,0-.65,0-1.58,0-11.49.29-23,.93-34.46,1.63q11.53,0,23.07,0c5.47,0,8.23,0,8.75,0h.15l.13,0a.71.71,0,0,1,0,.89l-.13,0h-.17l-.82,0-3.8,0c-6.86.05-20.57.12-37,.18l-10.53,0C82,6.2,50.62,7.66,19.24,9q-4,.42-7.95.88l-.26,0c2.05,0,4.1,0,6.15,0,1.64,0,3.27,0,4.91,0H28c18.93,0,37.85,0,56.74-1,4.54-.25,9.08-.47,13.63-.7l5-.35.81-.05c.46,0,4.66-.21,7.4-.32l1.7-.05.5,0h.27a.4.4,0,0,1,.13,0,1,1,0,0,1,.19.18.81.81,0,0,1,0,.51,1.52,1.52,0,0,1-.17.18l-.09,0-.06,0H114l-.17,0-.65,0-2.86.14-7.24.36-4.65.23c-11.28.81-22.72,1.86-33.61,4.64,2.22-.17,4.45-.46,6.68-.75,1.44-.18,2.89-.37,4.34-.53a.49.49,0,0,1,.54.44.49.49,0,0,1-.43.54c-1.41.15-2.84.34-4.27.52-3.11.4-6.27.81-9.4.91a5.22,5.22,0,0,1-1,0,.76.76,0,0,1-.21-.06.55.55,0,0,1-.28-.4.49.49,0,0,1,.15-.45,1.31,1.31,0,0,1,.16-.13,4.41,4.41,0,0,1,.63-.24l.82-.23h0a124.3,124.3,0,0,1,15.85-3.22c-16.79.71-33.62.72-50.42.73H22.09c-1.61,0-3.23,0-4.86,0-3.42.05-6.86.09-10.29,0l-.27,0-.14,0a.54.54,0,0,1-.25-.17.59.59,0,0,1-.11-.29A.55.55,0,0,1,6.24,10a.54.54,0,0,1,.18-.19,1.17,1.17,0,0,1,.23-.11,8.07,8.07,0,0,1,.94-.23L.51,9.76a.49.49,0,1,1,0-1L19.16,8c15.93-1.68,31.93-2.79,48-3.53-16.55,0-31.67.07-42,.07H23.46L23,4.5a1.12,1.12,0,0,1-.32,0,.61.61,0,0,1-.15-.07.48.48,0,0,1-.22-.51.52.52,0,0,1,.13-.26.33.33,0,0,1,.11-.08l.12-.06.3-.06L24,3.32c1.85-.14,5.55-.34,10-.55,6.21-.3,13.89-.63,20-.9ZM40.05,7.1c16.83-1.29,33.72-2,50.62-2.48Q65.36,6,40.05,7.1Zm75.63-3.91q-6.41.08-12.81.18c-22.44.08-46.57.15-64.4.17L54,2.86l6.66-.29c25-1.11,50-1.7,75-1.57,4.64,0,9.3.1,14,.18-8.06.41-16.12.91-24.18,1.42l-9,.55ZM61.57,14.62ZM6.83,9.81Z"/></svg>