<?xml version="1.0" encoding="UTF-8"?>
<svg id="Capa_1" data-name="Capa 1" xmlns="http://www.w3.org/2000/svg" version="1.1" viewBox="0 0 100 100">
  <defs>
    <style>
      .cls-1 {
        fill: #ffad33;
        stroke-width: 0px;
      }
    </style>
  </defs>
  <path class="cls-1" d="M42.7,98.5c-6.6-1-13.1-2.5-19.6-3.9-4-.9-9.6-.9-11.6-5-.2-.5-.1-1,.3-1.3,3.4-3.1,8.9-.9,13-.2,6.2,1,12.4,2,18.6,3.4,4.4.9,4,7.7-.7,7Z"/>
  <path class="cls-1" d="M81.5,34.1c-.8-6.6-1.1-13.3-1.5-19.9-.2-4.1-1.7-9.5,1.7-12.5.4-.3,1-.3,1.4,0,3.9,2.4,3.3,8.3,3.8,12.5.7,6.2,1.5,12.5,1.8,18.8,0,4.4-6.6,5.8-7.2,1.1Z"/>
  <path class="cls-1" d="M42.8,38.1c5.7,6.1,12,11.9,16.7,18.8,1.8,2.6-2.1,6.2-4.5,4.3-6.6-5.2-12-11.9-17.5-18.2-5.4-6.2-11.5-12.4-15.3-19.8-.9-1.8,1.2-4.2,3.1-2.9,6.7,5,11.9,11.7,17.5,17.8Z"/>
</svg>