<?xml version="1.0" encoding="UTF-8"?>
<svg id="Capa_1" data-name="Capa 1" xmlns="http://www.w3.org/2000/svg" version="1.1" viewBox="0 0 100 100">
  <defs>
    <style>
      .cls-1 {
        fill: #ffad33;
        stroke-width: 0px;
      }
    </style>
  </defs>
  <path class="cls-1" d="M89.7,43.8c-.4-1-1.4-1.7-2.5-1.7h-32.1L73.6,6.1c.7-1.3.2-2.9-1.1-3.6-1-.5-2.1-.4-3,.4l-19.5,16.8L11.1,53.3c-1.1,1-1.2,2.6-.3,3.7.5.6,1.2.9,2,.9h32.1l-18.5,36c-.7,1.3-.2,2.9,1.1,3.6,1,.5,2.1.4,3-.4l19.5-16.8,38.9-33.6c.9-.7,1.2-1.9.8-2.9Z"/>
</svg>